# xmcd
#
# Track frame offsets: 
#        150
#        28330
#        47067
#        64005
#        86474
#        108737
#        123920
#        147187
#        160756
#        180724
#        200767
#        226895
#        257092
#
# Disc length: 3690 seconds
#
# Revision: 1
# Processed by: cddbd v1.5.2PL0 Copyright (c) Steve Scherf et al.
# Submitted via: ExactAudioCopy v1.0b3
#
DISCID=b50e680d
DTITLE=Theodis Ealey - Stand Up In It
DYEAR=2004
DGENRE=Blues
TTITLE0=Stand Up In It (Clean)
TTITLE1=If You Keep Rockin
TTITLE2=Move With The Motion
TTITLE3=Lil' Brown Eyes
TTITLE4=Don't You Wanna Party
TTITLE5=Bluesman Lover
TTITLE6=If You Leave Me, I'm Going Wit' Cha
TTITLE7=Baby, You Got What It Takes
TTITLE8=I Want You
TTITLE9=All My Baby Left Me Was A Note, My Guitar and A Cookie Jar
TTITLE10=You've Got To Hurt Before You Heal
TTITLE11=Stand Up In It (Explicit)
TTITLE12=Stand Up In It - Part II (Explicit)
EXTD=
EXTT0=
EXTT1=
EXTT2=
EXTT3=
EXTT4=
EXTT5=
EXTT6=
EXTT7=
EXTT8=
EXTT9=
EXTT10=
EXTT11=
EXTT12=
PLAYORDER=
